<svg id="Слой_1" data-name="Слой 1" xmlns="http://www.w3.org/2000/svg" viewBox="0 0 418.91 185.88"><defs><style>.cls-1,.cls-3{fill:#006837;}.cls-1,.cls-2,.cls-3{stroke:#42210b;stroke-miterlimit:10;}.cls-1,.cls-2{stroke-width:4px;}.cls-2{fill:#754c24;}</style></defs><polygon class="cls-1" points="118.36 113.81 95.18 77.09 102.77 76.99 56.59 3.86 13.41 78.16 25.18 78 3.5 115.31 18.14 115.11 3.5 140.31 118.36 138.81 102.7 114.01 118.36 113.81"/><rect class="cls-2" x="52.91" y="140.36" width="17" height="43"/><polygon class="cls-1" points="415.31 114.33 392.12 77.61 399.71 77.51 353.53 4.38 310.35 78.68 322.13 78.52 300.45 115.83 315.09 115.64 300.45 140.83 415.31 139.33 399.65 114.53 415.31 114.33"/><rect class="cls-2" x="349.85" y="140.88" width="17" height="43"/><path class="cls-3" d="M250.51,151.4h-7.4v-5a8.71,8.71,0,0,0-.24-2.69,1,1,0,0,0-1-.54,1.09,1.09,0,0,0-1.16.65,9.64,9.64,0,0,0-.25,2.81V159.9a9,9,0,0,0,.25,2.71,1.27,1.27,0,0,0,2.19,0,10.43,10.43,0,0,0,.25-3v-3.58h7.4v1.11a22.13,22.13,0,0,1-.62,6.27,6.46,6.46,0,0,1-2.76,3.24,9.45,9.45,0,0,1-5.27,1.39,10.88,10.88,0,0,1-5.36-1.18,5.69,5.69,0,0,1-2.79-3.26,21.3,21.3,0,0,1-.69-6.27V149a37,37,0,0,1,.21-4.61,6.44,6.44,0,0,1,1.26-3,7,7,0,0,1,2.9-2.24,11.93,11.93,0,0,1,9.66.45,6,6,0,0,1,2.79,3.15,18.81,18.81,0,0,1,.67,5.87Z" transform="translate(-110.59 -107.14)"/><path class="cls-3" d="M270.55,167.46h-6.19v-12.6l-4.94,12.6H253V144.14h6.18v12.49L264,144.14h6.56Z" transform="translate(-110.59 -107.14)"/><path class="cls-3" d="M284,144.14q5.06,0,5.29,4.09c.07,1.3.1,2.73.1,4.29v5.7a17.9,17.9,0,0,1-.53,5.39q-1.55,4.06-7.64,4.06c-1.53,0-2.52,0-3-.07a5.86,5.86,0,0,1-2.51-.89,5.4,5.4,0,0,1-2.2-3.12,19.27,19.27,0,0,1-.39-4.58v-13.7a6.2,6.2,0,0,1,1.94-4.72,7.06,7.06,0,0,1,5-1.82c.87,0,2.11.06,3.73.18s2.67.18,3.18.18a5.17,5.17,0,0,0,1.58-.21v3.67a5.39,5.39,0,0,1-1.37.24c-.63,0-1.53,0-2.7-.14s-2-.14-2.5-.14a1.65,1.65,0,0,0-1.78,1.37,13.75,13.75,0,0,0-.1,2.27A4.89,4.89,0,0,1,284,144.14Zm-1.69,18.54V150.76a11.69,11.69,0,0,0-.09-1.93.92.92,0,0,0-.95-.81.94.94,0,0,0-1,.83,13.5,13.5,0,0,0-.08,1.91v11.16q0,2,1.05,2C281.91,163.93,282.26,163.51,282.26,162.68Z" transform="translate(-110.59 -107.14)"/><path class="cls-3" d="M309.47,167.46h-6.19v-12.6l-4.94,12.6h-6.47V144.14h6.19v12.49l4.85-12.49h6.56Z" transform="translate(-110.59 -107.14)"/><path class="cls-3" d="M319.22,144.14l-.12,2.06a6.5,6.5,0,0,1,2.09-1.87,5.23,5.23,0,0,1,2.5-.62,4.72,4.72,0,0,1,2.86.89,3.74,3.74,0,0,1,1.5,2.05,17.8,17.8,0,0,1,.3,3.94v9.82a18.93,18.93,0,0,1-.38,4.53,3.72,3.72,0,0,1-1.55,2.14,4.83,4.83,0,0,1-2.82.8,5,5,0,0,1-2.44-.61,6.63,6.63,0,0,1-2.06-1.83v5.34H312V144.14Zm2,6.78a12.25,12.25,0,0,0-.16-2.62c-.11-.3-.4-.46-.88-.46a.87.87,0,0,0-.91.53,9.66,9.66,0,0,0-.2,2.55v9.67a9.64,9.64,0,0,0,.21,2.64.88.88,0,0,0,.92.52c.45,0,.74-.16.85-.48a9.61,9.61,0,0,0,.17-2.35Z" transform="translate(-110.59 -107.14)"/><path class="cls-3" d="M346.38,152.94h-6.69v-2.69a5.29,5.29,0,0,0-.23-1.9.86.86,0,0,0-.85-.51.82.82,0,0,0-.82.44,5.69,5.69,0,0,0-.21,2v11a4.33,4.33,0,0,0,.31,1.87,1,1,0,0,0,.93.62,1,1,0,0,0,1-.65,7.83,7.83,0,0,0,.25-2.46v-2.78h6.33a37.23,37.23,0,0,1-.2,4.2,6.59,6.59,0,0,1-1.18,2.86,6.26,6.26,0,0,1-2.59,2.22,11.31,11.31,0,0,1-8.72-.28A5.71,5.71,0,0,1,331.2,164a15,15,0,0,1-.73-5.26v-6.63a12.77,12.77,0,0,1,.6-4.48,5.81,5.81,0,0,1,2.55-2.7,9,9,0,0,1,4.75-1.19,9.11,9.11,0,0,1,4.74,1.18,5.77,5.77,0,0,1,2.62,3A15.38,15.38,0,0,1,346.38,152.94Z" transform="translate(-110.59 -107.14)"/><path class="cls-3" d="M355.51,144.14v9.07c1.48,0,2.23-.79,2.23-2.38v-4c0-1.59.26-2.51.79-2.74h6.84a5.91,5.91,0,0,0-.79,3.37v3.25a3.51,3.51,0,0,1-1.39,2.83,12.27,12.27,0,0,1-2.15,1.2,5.66,5.66,0,0,1-2.37.54c.41.07,1.18.27,2.3.58q3.64,1.17,3.64,4.06v4.1a6,6,0,0,0,.79,3.39h-6.84a4.56,4.56,0,0,1-.79-2.74V159.8c0-1.58-.75-2.38-2.26-2.38v10h-7V144.14Z" transform="translate(-110.59 -107.14)"/><path class="cls-3" d="M373.24,153.17h-6.66v-1.56a11.18,11.18,0,0,1,.62-4.18,5.84,5.84,0,0,1,2.51-2.59A11.66,11.66,0,0,1,380,145a4.92,4.92,0,0,1,2.19,3.13,48.35,48.35,0,0,1,.37,7.63v11.71h-6.9v-2.08a4.7,4.7,0,0,1-1.68,1.88,4.64,4.64,0,0,1-2.46.62,5.93,5.93,0,0,1-3.41-1q-1.56-1.05-1.56-4.58v-1.92a5.65,5.65,0,0,1,.83-3.57,11.59,11.59,0,0,1,4.09-2.21c2.33-.91,3.58-1.53,3.75-1.85a5,5,0,0,0,.24-1.93,6.56,6.56,0,0,0-.27-2.38.94.94,0,0,0-.91-.56c-.48,0-.77.16-.89.47a9.28,9.28,0,0,0-.18,2.42Zm2.25,3.2a5.4,5.4,0,0,0-2,2.09,8.37,8.37,0,0,0-.27,2.43,7.07,7.07,0,0,0,.24,2.34.93.93,0,0,0,.94.52c.45,0,.74-.13.87-.41a6.87,6.87,0,0,0,.2-2.17Z" transform="translate(-110.59 -107.14)"/><path class="cls-3" d="M400.91,167.46h-7.07v-9.17a2.47,2.47,0,0,0-1.89.58,3.39,3.39,0,0,0-.51,2.18v6.41h-6.51V162a14.16,14.16,0,0,1,.23-3,2.33,2.33,0,0,1,1-1.45,10.52,10.52,0,0,1,2.78-1.05c-1.7-.16-2.8-.64-3.3-1.45a8.9,8.9,0,0,1-.76-4.37q0-3.48,2-5c1.35-1,4.25-1.52,8.71-1.52h5.26Zm-7.07-13.22v-5.57h-.72a1.69,1.69,0,0,0-1.23.45,3.22,3.22,0,0,0-.45,2.1v.3a3.28,3.28,0,0,0,.51,2.2A2.65,2.65,0,0,0,393.84,154.24Z" transform="translate(-110.59 -107.14)"/><path class="cls-3" d="M262.4,187.34l-.12,2.06a6.5,6.5,0,0,1,2.09-1.87,5.2,5.2,0,0,1,2.5-.62,4.67,4.67,0,0,1,2.85.89,3.71,3.71,0,0,1,1.51,2,17.8,17.8,0,0,1,.3,3.94v9.82a18.93,18.93,0,0,1-.38,4.53,3.72,3.72,0,0,1-1.55,2.14,4.83,4.83,0,0,1-2.82.8,5,5,0,0,1-2.44-.61,6.63,6.63,0,0,1-2.06-1.83V214h-7.1V187.34Zm2,6.78a12.56,12.56,0,0,0-.15-2.62c-.11-.3-.4-.46-.88-.46a.87.87,0,0,0-.91.53,9.66,9.66,0,0,0-.2,2.55v9.67a9.64,9.64,0,0,0,.21,2.64.88.88,0,0,0,.92.52c.45,0,.74-.16.85-.48a9.81,9.81,0,0,0,.16-2.35Z" transform="translate(-110.59 -107.14)"/><path class="cls-3" d="M280.21,196.37h-6.66v-1.56a11.18,11.18,0,0,1,.62-4.18,5.78,5.78,0,0,1,2.51-2.59,9.4,9.4,0,0,1,4.88-1.13,9.52,9.52,0,0,1,5.44,1.28,5,5,0,0,1,2.19,3.13,48.42,48.42,0,0,1,.37,7.64v11.7h-6.91v-2.08a4.32,4.32,0,0,1-4.13,2.5,6,6,0,0,1-3.42-1q-1.55-1-1.55-4.58v-1.92a5.66,5.66,0,0,1,.82-3.57,11.66,11.66,0,0,1,4.1-2.21c2.33-.91,3.58-1.53,3.74-1.85a4.74,4.74,0,0,0,.25-1.93,6.56,6.56,0,0,0-.27-2.38,1,1,0,0,0-.91-.56c-.48,0-.78.16-.89.47a9.28,9.28,0,0,0-.18,2.42Zm2.25,3.2a5.24,5.24,0,0,0-2,2.09,8.37,8.37,0,0,0-.27,2.43,7.07,7.07,0,0,0,.24,2.34.93.93,0,0,0,.94.52.87.87,0,0,0,.87-.41,6.87,6.87,0,0,0,.2-2.17Z" transform="translate(-110.59 -107.14)"/><path class="cls-3" d="M302.87,187.34c3.37,0,5.14,1.36,5.29,4.09.07,1.3.1,2.73.1,4.29v5.7a18.34,18.34,0,0,1-.52,5.39q-1.55,4.06-7.65,4.06c-1.52,0-2.52,0-3-.07a5.73,5.73,0,0,1-2.51-.89,5.44,5.44,0,0,1-2.2-3.12,19.27,19.27,0,0,1-.39-4.58v-13.7a6.2,6.2,0,0,1,1.94-4.72,7.07,7.07,0,0,1,5-1.82c.87,0,2.11.06,3.73.18s2.68.18,3.18.18a5.17,5.17,0,0,0,1.58-.21v3.67a5.49,5.49,0,0,1-1.37.25q-.94,0-2.7-.15c-1.16-.09-2-.14-2.5-.14a1.66,1.66,0,0,0-1.78,1.37,13.75,13.75,0,0,0-.1,2.27A4.9,4.9,0,0,1,302.87,187.34Zm-1.69,18.54V194a11.69,11.69,0,0,0-.09-1.93.91.91,0,0,0-.95-.81.93.93,0,0,0-1,.83,11.55,11.55,0,0,0-.09,1.91v11.16q0,2,1.05,2C300.83,207.13,301.18,206.71,301.18,205.88Z" transform="translate(-110.59 -107.14)"/><path class="cls-3" d="M326.86,195.53v5.71a24.18,24.18,0,0,1-.31,4.61,6.64,6.64,0,0,1-1.36,2.75,6.16,6.16,0,0,1-2.66,1.88,10.75,10.75,0,0,1-3.74.6,13.53,13.53,0,0,1-4-.51,5.49,5.49,0,0,1-2.54-1.57,6.26,6.26,0,0,1-1.29-2.53,18.92,18.92,0,0,1-.39-4.46v-6a14.57,14.57,0,0,1,.71-5.08,5.85,5.85,0,0,1,2.53-2.94,8.91,8.91,0,0,1,4.68-1.11,10.55,10.55,0,0,1,4.1.72,6.65,6.65,0,0,1,2.65,1.85,6.58,6.58,0,0,1,1.27,2.36A14.55,14.55,0,0,1,326.86,195.53Zm-7.1-1.76a7.74,7.74,0,0,0-.19-2.26.81.81,0,0,0-.83-.47.83.83,0,0,0-.84.47,7.15,7.15,0,0,0-.21,2.26V204.3a6.81,6.81,0,0,0,.21,2.15.79.79,0,0,0,.82.5.82.82,0,0,0,.84-.45,6.14,6.14,0,0,0,.2-2Z" transform="translate(-110.59 -107.14)"/><path class="cls-3" d="M344.9,196.14h-6.7v-2.69a5.29,5.29,0,0,0-.23-1.9,1,1,0,0,0-1.67-.07,5.69,5.69,0,0,0-.21,2v11a4.31,4.31,0,0,0,.32,1.87,1,1,0,0,0,.93.62,1,1,0,0,0,1-.65,7.75,7.75,0,0,0,.26-2.46v-2.78h6.33a37.1,37.1,0,0,1-.2,4.2,6.84,6.84,0,0,1-1.18,2.86,6.29,6.29,0,0,1-2.6,2.22,11.29,11.29,0,0,1-8.71-.28,5.67,5.67,0,0,1-2.49-2.89,14.81,14.81,0,0,1-.73-5.26v-6.63a12.77,12.77,0,0,1,.6-4.48,5.76,5.76,0,0,1,2.55-2.7,9,9,0,0,1,4.74-1.19,9.14,9.14,0,0,1,4.75,1.18,5.86,5.86,0,0,1,2.62,3A15.65,15.65,0,0,1,344.9,196.14Z" transform="translate(-110.59 -107.14)"/><path class="cls-3" d="M361.07,187.34v4.88H357v18.44h-7.09V192.22h-4.07v-4.88Z" transform="translate(-110.59 -107.14)"/><path class="cls-3" d="M379,204a10.3,10.3,0,0,1-.75,4.59,3.34,3.34,0,0,1-2.35,1.73,27.69,27.69,0,0,1-5.22.34h-8.21V187.34h7.05v7.77h1.16a23.28,23.28,0,0,1,5.06.4,3.7,3.7,0,0,1,2.47,1.78,9.12,9.12,0,0,1,.79,4.34Zm-7.07-.86v-.93a3.94,3.94,0,0,0-.36-2.2c-.24-.26-.92-.4-2-.44v6.19a3.52,3.52,0,0,0,1.91-.36C371.78,205.16,372,204.4,372,203.14Z" transform="translate(-110.59 -107.14)"/><text x="-110.59" y="-107.14"/></svg>